<?xml version="1.0" encoding="UTF-8"?>
<svg width="142px" height="16px" viewBox="0 0 142 16" version="1.1" xmlns="http://www.w3.org/2000/svg" xmlns:xlink="http://www.w3.org/1999/xlink">
    <!-- Generator: Sketch 56.2 (81672) - https://sketch.com -->
    <title>Logo/Full</title>
    <desc>Created with Sketch.</desc>
    <g id="Symbols" stroke="none" stroke-width="1" fill="none" fill-rule="evenodd">
        <g id="Nav" transform="translate(-1418.000000, -35.000000)" fill="#CC0000" stroke="#979797">
            <g id="Logo/Full" transform="translate(1418.000000, 35.000000)">
                <path d="M60.4645161,7.89677419 C60.4671159,5.3239888 62.5082926,3.23106413 65.0451613,3.2 C66.2797251,3.16319031 67.4739181,3.64795843 68.3424257,4.53848429 C69.2109328,5.42901017 69.6757436,6.64530524 69.6258065,7.89677419 C69.6258065,10.4622259 67.5749819,12.5419355 65.0451613,12.5419355 C63.8235938,12.5645672 62.6454768,12.0824386 61.7815539,11.2063478 C60.917631,10.330257 60.4421987,9.13554699 60.4645161,7.89677419 Z M62.1949821,7.89677419 C62.1949821,9.75483871 63.3655914,11.0967742 65.0960573,11.0451613 C65.8977583,11.0336934 66.6602408,10.6914551 67.2076528,10.0973775 C67.7550644,9.50329987 68.0401403,8.70867706 67.9971326,7.89677419 C67.9971326,5.98709677 66.8265233,4.69677419 65.0960573,4.69677419 C63.3655914,4.69677419 62.1949821,6.24516129 62.1949821,7.89677419 Z M50.4379928,7.89677419 C50.4216234,6.66873977 50.891956,5.48542028 51.7435276,4.61215156 C52.5950996,3.73888283 53.756656,3.24873462 54.9677419,3.25157763 C56.3476816,3.24616585 57.6565079,3.87187428 58.5304659,4.95483871 L58.581362,5.00645161 L57.3089606,6.03870968 L57.2580645,5.98709677 C56.7537416,5.19749419 55.8952824,4.71385518 54.9677419,4.69677419 C54.1614868,4.72200694 53.3992797,5.07567251 52.8533472,5.67785775 C52.3074142,6.28004305 52.023828,7.07992836 52.0666667,7.89677419 C52.0666667,9.70322581 53.237276,11.0967742 54.9677419,11.0967742 C55.9236585,11.1395978 56.8172217,10.6160452 57.2580645,9.75483871 L57.3089606,9.6516129 L58.581362,10.7354839 L58.5304659,10.7870968 C57.7186178,11.9256599 56.4035716,12.5827803 55.018638,12.5419355 C53.7897624,12.5903437 52.5967155,12.1165075 51.7271136,11.2346579 C50.8575121,10.3528084 50.390257,9.14295794 50.4379928,7.89677419 Z M114.974194,8.61935484 L111.767742,3.45806452 L113.650896,3.45806452 L115.78853,7.01935484 L118.027957,3.45806452 L119.809319,3.45806452 L116.602867,8.61935484 L116.602867,12.3354839 L114.974194,12.3354839 L114.974194,8.61935484 Z M85.2,3.45806452 L87.2358423,3.45806452 C89.627957,3.45806452 90.9003584,4.54193548 90.9003584,6.29677419 C90.9003584,8.15483871 89.4243728,9.08387097 87.2867384,9.08387097 C87.1340502,9.08387097 86.981362,9.03225806 86.8795699,9.03225806 L86.8795699,12.3354839 L85.2,12.3354839 L85.2,3.45806452 Z M86.8795699,4.8 L86.8795699,7.63870968 C87.0093436,7.68838364 87.1489001,7.70607391 87.2867384,7.69032258 C88.6100358,7.69032258 89.2207885,7.17419355 89.2207885,6.24516129 C89.2207885,5.31612903 88.6609319,4.8 87.2867384,4.8 L86.8795699,4.8 Z M74.1046595,7.53548387 L73.0867384,12.3870968 L71.4580645,12.3870968 L73.646595,3.30322581 L76.9039427,9.29032258 L80.0594982,3.30322581 L82.3498208,12.3354839 L80.6193548,12.3354839 L79.5505376,7.53548387 L76.8530466,12.5935484 L74.1046595,7.53548387 Z M29.1634409,8.72258065 L29.1634409,3.45806452 L30.7921147,3.45806452 L30.7921147,12.5935484 L24.9390681,7.12258065 L24.9390681,12.3870968 L23.3612903,12.3870968 L23.3612903,3.30322581 L29.1634409,8.72258065 Z M17.8645161,3.45806452 L19.544086,3.45806452 L19.544086,12.3354839 L17.8645161,12.3354839 L17.8645161,3.45806452 Z M15.7268817,12.3354839 L13.8946237,12.3354839 L13.0802867,10.4258065 L9.72114695,10.4258065 L8.85591398,12.3354839 L7.17634409,12.3354839 L11.4516129,3.2516129 L15.7268817,12.3354839 Z M10.3318996,9.03225806 L12.4695341,9.03225806 L11.4516129,6.4516129 L10.3318996,9.03225806 Z M4.22437276,7.63870968 C5.21039144,7.86000594 5.92285242,8.73125068 5.95483871,9.75483871 C5.95483871,11.4064516 4.73333333,12.3354839 2.49390681,12.3354839 L3.42659234e-12,12.3354839 L3.42659234e-12,3.45806452 L2.08673835,3.45806452 C4.1734767,3.45806452 5.39498208,4.23225806 5.39498208,5.78064516 C5.40108691,6.58015035 4.94233133,7.30831597 4.22437276,7.63870968 Z M2.3921147,8.56774194 L1.67956989,8.56774194 L1.67956989,10.9935484 L2.3921147,10.9935484 C3.61362007,10.9935484 4.22437276,10.6322581 4.22437276,9.80645161 C4.22437276,8.87741935 3.56272401,8.56774194 2.3921147,8.56774194 Z M1.67956989,7.22580645 L2.03584229,7.22580645 C3.20645161,7.22580645 3.8172043,6.96774194 3.8172043,6.03870968 C3.8172043,5.10967742 3.20645161,4.8 1.98494624,4.8 L1.67956989,4.8 L1.67956989,7.22580645 Z M43.3125448,12.3870968 L42.6,11.5096774 C41.9798564,12.2140706 41.0880133,12.6097475 40.1569892,12.5935484 C38.5283154,12.5935484 37.4086022,11.5096774 37.4086022,10.116129 C37.4086022,8.82580645 38.2229391,8.0516129 39.1390681,7.53548387 C38.5709693,6.97478183 38.226671,6.22135819 38.172043,5.41935484 C38.172043,4.18064516 39.1899642,3.2516129 40.7168459,3.2516129 C42.0910394,3.2516129 43.1598566,4.07741935 43.1598566,5.31612903 C43.1598566,6.24516129 42.4473118,7.12258065 41.2767025,7.74193548 L42.6508961,9.34193548 L43.4143369,8.15483871 L44.9921147,8.15483871 C44.9921147,8.15483871 43.7197133,10.116129 43.516129,10.3741935 C43.7706093,10.683871 45.246595,12.3870968 45.246595,12.3870968 L43.3125448,12.3870968 Z M39.6989247,5.47096774 C39.7746454,5.98670746 40.0492547,6.45083592 40.4623656,6.76129032 C41.0731183,6.4516129 41.683871,5.98709677 41.683871,5.36774194 C41.6904568,5.11019808 41.5888927,4.8619318 41.4044628,4.68474785 C41.2200329,4.5075639 40.9700862,4.41812977 40.7168459,4.43870968 C40.4443404,4.43002222 40.1804208,4.53598543 39.9876351,4.73148641 C39.7948494,4.92698738 39.690358,5.19462415 39.6989247,5.47096774 Z M41.683871,10.5290323 L39.953405,8.51612903 L39.902509,8.51612903 C39.3736839,8.80745543 39.028184,9.35246932 38.9863799,9.96129032 C38.9803973,10.3100473 39.121521,10.6448059 39.3742677,10.8813966 C39.6270146,11.1179873 39.9673409,11.2339035 40.3096774,11.2 C40.8461741,11.2073409 41.3549663,10.9589165 41.683871,10.5290323 Z M108.154122,8.72258065 L108.154122,3.45806452 L109.782796,3.45806452 L109.782796,12.5935484 L103.980645,7.12258065 L103.980645,12.3354839 L102.351971,12.3354839 L102.351971,3.30322581 L108.154122,8.72258065 Z M100.214337,12.3354839 L98.3820789,12.3354839 L97.5677419,10.4258065 L94.2086022,10.4258065 L93.3433692,12.3354839 L91.6637993,12.3354839 L95.9390681,3.2516129 L100.214337,12.3354839 Z M94.8193548,9.03225806 L96.9569892,9.03225806 L95.9390681,6.4516129 L94.8193548,9.03225806 Z M136.96129,8.30967742 L131.617204,7.07096774 L135.536201,1.90967742 L136.96129,8.30967742 Z M142,7.89677419 C142,12.2580422 138.513598,15.7935484 134.212903,15.7935484 C129.912208,15.7935484 126.425806,12.2580422 126.425806,7.89677419 C126.425806,3.53550623 129.912208,1.77635684e-15 134.212903,1.77635684e-15 C134.621785,0.00874826895 135.029738,0.043223145 135.434409,0.103225806 L134.77276,0.980645161 L134.212903,0.980645161 C132.491414,0.958615061 130.831957,1.63174985 129.600346,2.851661 C128.368736,4.07157214 127.666093,5.7381009 127.647312,7.48387097 C127.647312,11.1610183 130.586827,14.1419351 134.212903,14.1419351 C137.838979,14.1419351 140.778495,11.1610183 140.778495,7.48387097 C140.760292,4.78694884 139.098675,2.38271354 136.605018,1.44516129 L136.350538,0.361290323 C139.689366,1.30060505 142.000314,4.38304128 142,7.89677419 Z" id="Logo" stroke="none"></path>
            </g>
        </g>
    </g>
</svg>