<?xml version="1.0" encoding="UTF-8"?>
<svg width="468px" height="972px" viewBox="0 0 468 972" version="1.1" xmlns="http://www.w3.org/2000/svg" xmlns:xlink="http://www.w3.org/1999/xlink">
    <!-- Generator: Sketch 56.2 (81672) - https://sketch.com -->
    <title>Group 5</title>
    <desc>Created with Sketch.</desc>
    <defs>
        <polygon id="path-1" points="410.95558 298.253335 499.93578 298.253347 499.935788 359.57017 410.955588 359.570158"></polygon>
        <filter x="-19.7%" y="-28.5%" width="155.1%" height="179.9%" filterUnits="objectBoundingBox" id="filter-2">
            <feOffset dx="7" dy="7" in="SourceAlpha" result="shadowOffsetOuter1"></feOffset>
            <feGaussianBlur stdDeviation="7" in="shadowOffsetOuter1" result="shadowBlurOuter1"></feGaussianBlur>
            <feColorMatrix values="0 0 0 0 0.192156863   0 0 0 0 0.192156863   0 0 0 0 0.192156863  0 0 0 0.276496941 0" type="matrix" in="shadowBlurOuter1"></feColorMatrix>
        </filter>
        <linearGradient x1="32.8380386%" y1="70.0945972%" x2="75.1857355%" y2="34.798415%" id="linearGradient-3">
            <stop stop-color="#8CAAA8" offset="0%"></stop>
            <stop stop-color="#8CAAA8" offset="99%"></stop>
        </linearGradient>
        <linearGradient x1="-1.70755186%" y1="49.7687863%" x2="98.2906294%" y2="49.7687863%" id="linearGradient-4">
            <stop stop-color="#8CAAA8" offset="0%"></stop>
            <stop stop-color="#8CAAA8" offset="99%"></stop>
        </linearGradient>
        <linearGradient x1="-1.55617861%" y1="49.6503497%" x2="98.46127%" y2="49.6503497%" id="linearGradient-5">
            <stop stop-color="#8CAAA8" offset="0%"></stop>
            <stop stop-color="#8CAAA8" offset="99%"></stop>
        </linearGradient>
        <linearGradient x1="3.00883965%" y1="31.9472877%" x2="71.6524326%" y2="64.9329487%" id="linearGradient-6">
            <stop stop-color="#8CAAA8" offset="0%"></stop>
            <stop stop-color="#8CAAA8" offset="99%"></stop>
        </linearGradient>
        <linearGradient x1="-1.5035461%" y1="50.7371795%" x2="98.5531915%" y2="50.7371795%" id="linearGradient-7">
            <stop stop-color="#8CAAA8" offset="0%"></stop>
            <stop stop-color="#8CAAA8" offset="99%"></stop>
        </linearGradient>
        <linearGradient x1="50.075643%" y1="81.6115702%" x2="50.075643%" y2="14.3939394%" id="linearGradient-8">
            <stop stop-color="#AECCCB" offset="0%"></stop>
            <stop stop-color="#8CAAA8" offset="77%"></stop>
        </linearGradient>
        <linearGradient x1="4.40339697%" y1="39.6534149%" x2="66.7838126%" y2="68.0937819%" id="linearGradient-9">
            <stop stop-color="#AECCCB" offset="0%"></stop>
            <stop stop-color="#8CAAA8" offset="99%"></stop>
        </linearGradient>
        <linearGradient x1="-17.4568442%" y1="52.2657281%" x2="101.483102%" y2="52.2657281%" id="linearGradient-10">
            <stop stop-color="#8CAAA8" offset="0%"></stop>
            <stop stop-color="#8CAAA8" offset="99%"></stop>
        </linearGradient>
        <linearGradient x1="40.6082873%" y1="66.7053576%" x2="74.1209065%" y2="97.360527%" id="linearGradient-11">
            <stop stop-color="#8CAAA8" offset="0%"></stop>
            <stop stop-color="#8CAAA8" offset="99%"></stop>
        </linearGradient>
        <linearGradient x1="-31.9883333%" y1="32.9895105%" x2="74.6016667%" y2="44.2832168%" id="linearGradient-12">
            <stop stop-color="#8CAAA8" offset="0%"></stop>
            <stop stop-color="#8CAAA8" offset="99%"></stop>
        </linearGradient>
    </defs>
    <g id="Landing-Page" stroke="none" stroke-width="1" fill="none" fill-rule="evenodd">
        <g id="ADS---Landing-Page" transform="translate(0.000000, -21.000000)">
            <g id="Group-5" transform="translate(236.811757, 507.098622) rotate(-7.000000) translate(-236.811757, -507.098622) translate(-51.688243, 52.598622)">
                <polygon id="Path-2" fill="#CC0000" points="576.820728 0.432508478 268.464853 906.432508 0.821150304 906.432508 0.821150304 0.432508478"></polygon>
                <circle id="Oval" fill="#820303" cx="442.868221" cy="195.785715" r="5.5"></circle>
                <polygon id="Rectangle" fill="#000000" transform="translate(418.561354, 295.703838) rotate(-0.090000) translate(-418.561354, -295.703838) " points="413.404962 293.013778 423.717745 293.01378 423.717746 298.393897 413.404963 298.393896"></polygon>
                <polygon id="Rectangle" fill="#820303" transform="translate(446.147690, 328.926356) rotate(-0.090000) translate(-446.147690, -328.926356) " points="401.657586 298.267939 490.637786 298.267951 490.637794 359.584774 401.657595 359.584762"></polygon>
                <g id="Rectangle" transform="translate(455.445684, 328.911752) rotate(-0.090000) translate(-455.445684, -328.911752) ">
                    <use fill="black" fill-opacity="1" filter="url(#filter-2)" xlink:href="#path-1"></use>
                    <use fill="#ED3232" fill-rule="evenodd" xlink:href="#path-1"></use>
                </g>
                <circle id="Oval" fill="#820303" cx="455.129967" cy="329.77881" r="22"></circle>
                <circle id="Oval" fill="#AECCCB" cx="458.107606" cy="330.144418" r="22"></circle>
                <circle id="Oval" fill="#CB0000" cx="459.100152" cy="330.266288" r="18"></circle>
                <path d="M471.488122,316.705251 C464.451662,310.156301 453.482528,310.357855 446.692104,317.160869 C439.90168,323.963884 439.735746,334.918046 446.317006,341.923041 L471.488122,316.705251 Z" id="Path" fill="#820303"></path>
                <path d="M419.003176,304.418097 L424.270711,304.418097 C426.269971,304.418097 427.890691,306.038817 427.890691,308.038077 L427.890691,308.207579 C427.890691,310.206839 426.269971,311.827559 424.270711,311.827559 L419.003176,311.827559 C417.003917,311.827559 415.383196,310.206839 415.383196,308.207579 L415.383196,308.038077 C415.383196,306.038817 417.003917,304.418097 419.003176,304.418097 Z" id="Rectangle" stroke="#AECCCB" stroke-width="1.638" transform="translate(421.636944, 308.122828) rotate(-0.090000) translate(-421.636944, -308.122828) "></path>
                <polygon id="Path" fill="#820303" points="0.822287161 1.23757231 1.06991186 157.013384 87.4437666 156.871791 139.822287 1.01338352"></polygon>
                <path d="M341.322021,158.03476 L341.112021,2.03476004" id="Path" fill="#820303"></path>
                <polygon id="Path" fill="#820303" points="348.035898 0.966507993 295.600661 156.587378 524.177225 156.208249 576.600661 0.58737835"></polygon>
                <polygon id="Path" fill="#820303" points="1.80601738 159.351415 1.80601738 556.174478 123.806017 159.174478"></polygon>
                <polygon id="Path" fill="#820303" points="2.63213979 782.870447 1.52216682 908.456867 124.292262 908.114187 167.522167 782.456867"></polygon>
                <polygon id="Rectangle" fill="#CB0000" transform="translate(149.818264, 744.197112) rotate(-0.090000) translate(-149.818264, -744.197112) " points="43.7228523 706.441887 255.913666 706.441916 255.913676 781.952338 43.7228625 781.952309"></polygon>
                <polyline id="Path" stroke="#ED3232" stroke-width="1.638" points="572.774588 14.3442709 446.774588 14.5443391 446.881408 83.3442709 549.369162 83.1795088"></polyline>
                <path d="M492.810067,51.5257558 C491.320707,49.1546054 491.698957,47.1865506 493.921178,45.7401488 C496.323966,44.384502 499.365579,45.181256 500.800606,47.5422231 L501.013372,47.8860399 L501.013372,42.7762108 C501.013372,35.8524516 493.862076,30.7900455 488.105579,30.7900455 L488.105579,30.7900455 C482.349081,30.7900455 476.001568,35.8880189 476.013372,42.8117781 L476.013372,56.588162 C476.013372,61.4253088 477.857359,64.8871884 481.864448,66.9263778 C482.431824,67.2227716 481.119768,76.4109794 481.734425,76.6006714 C482.987379,77.0156228 497.821884,76.9919112 500.339613,73.944983 C498.448362,70.0800078 495.11503,55.1773275 492.810067,51.5257558 Z" id="Path" fill="#AECCCB"></path>
                <path d="M500.620035,40.4975281 C500.620035,46.5689448 494.557164,51.5094113 487.062302,51.5213375 C479.567439,51.5332208 473.6316,46.5808495 473.620035,40.4975281 C473.608503,34.4142066 479.521246,29.5332638 487.027657,29.5213375 C494.534068,29.5094543 500.608486,34.4261114 500.620035,40.4975281 Z" id="Path" fill="#000000"></path>
                <path d="M484.34283,66.1357191 C475.677931,67.4345613 472.236729,63.5856987 472.236729,63.5856987 L472.236729,54.9704428 L470.34283,54.9704428 L473.239381,47.0582299 C473.239381,47.0582299 473.127976,46.5577586 472.447162,44.2579739 C472.199594,36.3934249 474.638144,34.7251873 475.021875,34.4034557 L475.578904,39.5749925" id="Path" fill="#AECCCB"></path>
                <path d="M481.682686,61.5465675 C479.031869,62.5706274 476.369164,63.5705917 473.682686,64.474174 C475.985884,65.9739815 478.700528,66.6913556 481.433057,66.5222938 C481.444944,64.8717502 481.563815,63.2212066 481.682686,61.5465675 Z" id="Path" fill="url(#linearGradient-3)"></path>
                <path d="M488.750263,31.8496763 L484.964559,31.8496763 C479.738382,31.8496763 477.976482,36.2774219 477.988326,42.3699075 L477.988326,46.3699075 C478.690858,47.0605636 479.234557,47.8880054 479.58362,48.7976531 C479.655408,48.9510342 479.715103,49.1094855 479.762191,49.2716416 C479.845524,49.445052 479.928857,49.6300231 480.024095,49.8149942 C480.250285,50.2658612 480.48838,50.728289 480.738379,51.1675953 C481.321711,52.2196185 481.928852,53.2369595 482.571708,54.2658612 C483.731313,56.0696703 484.788445,57.9337266 485.738366,59.8496763 L495.405008,59.8496763 C495.488341,59.3063237 500.774041,52.3236647 500.774041,48.5086358 C500.774041,44.6936069 500.988326,41.5722196 500.988326,41.5722196 C500.952612,35.4219306 493.97644,31.8496763 488.750263,31.8496763 Z" id="Path" fill="#000000"></path>
                <polygon id="Rectangle" fill="#AECCCB" transform="translate(479.117764, 55.165554) rotate(179.910000) translate(-479.117764, -55.165554) " points="476.504169 50.428455 481.731357 50.4284557 481.731359 59.9026539 476.50417 59.9026532"></polygon>
                <path d="M484.882195,30.224118 L482.720317,30.224118 C478.516666,30.224118 472.751658,34.2859257 472.763669,39.8950505 C472.759495,39.9755867 472.759495,40.056287 472.763669,40.1368232 C472.837783,40.0541899 472.918088,39.9774031 473.003877,39.9071392 C473.892624,38.9825237 475.110808,38.4524982 476.388867,38.4343482 C477.666926,38.4161983 478.899482,38.9114203 479.813792,39.8104301 C481.555305,41.5753703 481.68742,43.6667035 479.813792,45.3953777 C479.728003,45.4656417 479.647698,45.5424285 479.573584,45.6250617 C479.499132,45.7818585 479.43494,45.9433843 479.381417,46.108607 C479.309354,46.4108227 479.237292,46.7130385 479.177239,47.0152543 C479.117187,47.3174701 479.105177,47.4262678 479.081156,47.6438631 C480.057194,48.0277 481.095923,48.2244985 482.143816,48.224118 L487.632584,48.224118 C492.676965,48.224118 496.772523,45.3712005 496.760539,39.7620756 L496.760539,39.7620756 C496.760539,34.1650394 489.085846,30.212057 484.882195,30.224118 Z" id="Path" fill="#000000"></path>
                <path d="M482.26326,57.7044022 C480.991916,56.9922517 477.241984,53.80568 477.263351,52.622786 L477.263351,47.8670693 C477.263351,46.50312 477.808213,45.006397 479.015456,45.006397 L479.442799,44.7046383 C480.669993,44.6863021 481.703085,45.7378265 481.814551,47.1187077 L481.814551,52.272746 C481.820744,52.9245047 481.593402,53.5513971 481.18422,54.0108759 C481.062623,54.612743 481.001695,55.2282225 481.0026,55.8455687 C481.056017,56.9922517 482.26326,57.7044022 482.26326,57.7044022 Z" id="Path" fill="url(#linearGradient-4)"></path>
                <path d="M479.324959,44.5365708 C480.657623,44.5365708 481.737962,45.616909 481.737962,46.9495738 L481.737962,51.3146026 C481.737962,52.6472674 480.657623,53.7276056 479.324959,53.7276056 C477.992294,53.7276056 476.911956,52.6472674 476.911956,51.3146026 L476.911956,46.9495738 C476.911956,45.616909 477.992294,44.5365708 479.324959,44.5365708 Z" id="Rectangle" fill="#AECCCB" transform="translate(479.324959, 49.132088) rotate(-0.090000) translate(-479.324959, -49.132088) "></path>
                <polygon id="Path" fill="#000000" points="476.948449 47.5016596 478.310835 47.5016596 479.948449 43.5016596 476.948449 43.5016596"></polygon>
                <path d="M482.58114,53.0936756 C482.373411,53.1915777 479.43059,55.1496197 479.638319,55.3331861 L485.627825,60.0936756" id="Path" fill="url(#linearGradient-5)"></path>
                <path d="M500.420296,37.2163275 C500.420296,37.2163275 502.480296,41.5496608 500.350296,50.2163275" id="Path" fill="#000000"></path>
                <path d="M472.282,31.9556706 L472.422775,32.1238273 L472.725981,32.4000848 C472.766655,32.4615301 472.823352,32.5076478 472.888413,32.5322079 C473.44035,33.0580341 474.091643,33.4397612 474.794281,33.6492489 C475.705214,33.925648 476.666349,33.925648 477.577282,33.6492489 L477.7722,33.5531593 C477.886761,33.7949464 477.953229,34.0611779 477.967119,34.3338869 C477.967499,34.5958094 477.945746,34.8571949 477.902146,35.1146145 C478.811765,35.2827712 479.266574,36.1715995 478.887566,37.4087524 C477.728885,41.2042895 471.307409,43.2461923 470.137899,36.7481367 C469.683292,34.7820486 470.595448,32.7432114 472.282,31.9556706 L472.282,31.9556706 Z" id="Path" fill="#000000"></path>
                <ellipse id="Oval" fill="#000000" transform="translate(478.745712, 33.062072) rotate(-17.920000) translate(-478.745712, -33.062072) " cx="478.745712" cy="33.0620715" rx="4.61357559" ry="3.65756598"></ellipse>
                <path d="M473.509086,32.5253023 C474.477058,32.1562105 475.607572,32.2165045 476.509086,32.6853023" id="Path" stroke="#4A4A4A" stroke-width="1.2285"></path>
                <ellipse id="Oval" fill="#000000" transform="translate(485.663469, 32.295584) rotate(-2.200000) translate(-485.663469, -32.295584) " cx="485.663469" cy="32.2955839" rx="4.61361273" ry="3.65753654"></ellipse>
                <path d="M522.498302,155.26449 L522.957434,90.8336564 C520.554006,77.7981617 509.667056,68.0706831 496.527902,67.2188964 C492.080125,66.9742385 487.621395,67.4180264 483.307249,68.5347791 C473.032497,71.1991389 464.81419,78.9519982 461.504357,89.1028557 L452.957434,139.758413 L462.846435,152.976514 C467.885117,151.067891 465.624774,152.383774 467.390667,150.107652 L467.272941,156.1536 L522.498302,155.26449 Z" id="Path" fill="#CB0000"></path>
                <path d="M476.269288,112.093187 C476.269288,112.093187 476.591585,149.578901 463.269974,153.093187" id="Path" stroke="#8E0000" stroke-width="1.2285"></path>
                <path d="M524.456123,156.993654 L478.556122,157.06486 L498.541403,100.882677 C499.959656,95.683954 504.657348,92.075946 510.022309,92.0648604 L535.901594,92.0648604 C538.2862,92.057317 540.537216,93.1702934 541.986097,95.0732775 C543.434978,96.9762616 543.915098,99.4504049 543.283864,101.760895 L524.456123,156.993654 Z" id="Path" fill="#000000"></path>
                <polyline id="Path" stroke="#ED3232" stroke-width="1.638" points="47.748836 781.351437 47.9378124 837.351437 74.748836 837.339727"></polyline>
                <polyline id="Path" stroke="#ED3232" stroke-width="1.638" points="79.9770186 510.775165 47.9770186 510.83381 48.1567938 595.775165"></polyline>
                <path d="M251.98505,455.44559 L274.98505,478.44559" id="Path" stroke="#ED3232" stroke-width="1.638"></path>
                <path d="M340.332535,458.965416 L383.332535,349.965416" id="Path" stroke="#ED3232" stroke-width="1.638"></path>
                <path d="M454.934333,193.564862 L508.934333,193.494862" id="Path" stroke="#ED3232" stroke-width="1.638"></path>
                <path d="M419.120124,253.741475 L437.120124,205.741475" id="Path" stroke="#ED3232" stroke-width="1.638"></path>
                <path d="M482.8252,37.1669102 C484.561892,37.7857573 485.688973,38.912839 485.8252,40.1669102" id="Path" stroke="#4A4A4A" stroke-width="1.2285"></path>
                <path d="M489.511693,33.4826657 C490.479666,33.1135738 491.61018,33.1738679 492.511693,33.6426657" id="Path" stroke="#4A4A4A" stroke-width="1.2285"></path>
                <path d="M36.993631,349.849749 L90.6102417,349.849749 C95.4229394,349.849749 99.3244017,353.751211 99.3244017,358.563909 L99.3244017,381.356697 C99.3244017,386.169395 95.4229394,390.070857 90.6102417,390.070857 L36.993631,390.070857 C32.1809333,390.070857 28.279471,386.169395 28.279471,381.356697 L28.279471,358.563909 C28.279471,353.751211 32.1809333,349.849749 36.993631,349.849749 Z" id="Rectangle" fill="#AECCCB" transform="translate(63.801936, 369.960303) rotate(-0.090000) translate(-63.801936, -369.960303) "></path>
                <path d="M28.7514933,354.437189 C31.3337423,355.786395 64.2870289,383.415794 64.2870289,383.415794 C64.2870289,383.415794 97.1810896,355.70427 99.7514933,354.319867 C99.1168761,351.454694 96.55355,349.413823 93.5920005,349.415794 L34.8754506,349.509653 C31.9232559,349.535358 29.3816475,351.580419 28.7514933,354.437189 Z" id="Path" fill="#AECCCB"></path>
                <path d="M27.6258971,354.707897 L59.9554151,381.243187 C61.9347137,382.87797 64.8237707,382.87797 66.8030694,381.243187 L101.625897,352.469275" id="Path" stroke="#CB0000" stroke-width="1.638"></path>
                <path d="M331.142806,573.678157 L383.228468,573.678157 C391.125996,573.678157 397.528208,580.080369 397.528208,587.977897 L397.528208,606.029711 C397.528208,613.927239 391.125996,620.329451 383.228468,620.329451 L331.142806,620.329451 C323.245278,620.329451 316.843066,613.927239 316.843066,606.029711 L316.843066,587.977897 C316.843066,580.080369 323.245278,573.678157 331.142806,573.678157 Z" id="Rectangle" fill="#ED3232" transform="translate(357.185637, 597.003804) rotate(179.910000) translate(-357.185637, -597.003804) "></path>
                <polygon id="Path" fill="#ED3232" points="328.663196 561.906111 340.663196 576.030211 340.663196 582.882842 328.698875 582.906111"></polygon>
                <path d="M310.762691,473.487065 C298.219126,473.487065 286.911815,481.046353 282.117188,492.637412 C277.322562,504.22847 279.985696,517.566594 288.863868,526.427695 C297.742041,535.288796 311.085263,537.926251 322.667068,533.10932 C334.248874,528.29239 341.786357,516.970546 341.762292,504.427001 L310.762691,504.427001 L310.762691,473.487065 Z" id="Path" fill="#AECCCB"></path>
                <path d="M318.839026,465.182914 L318.839026,496.182914 L349.839026,496.182914 C349.839026,479.062087 335.959853,465.182914 318.839026,465.182914 L318.839026,465.182914 Z" id="Path" fill="#820303"></path>
                <polygon id="Rectangle" stroke="#ED3232" stroke-width="1.638" transform="translate(527.578669, 41.387280) rotate(-0.090000) translate(-527.578669, -41.387280) " points="508.345445 25.3472116 546.811888 25.3472168 546.811893 57.4273477 508.345449 57.4273425"></polygon>
                <path d="M508.970844,31.9658035 L546.970844,31.9058035" id="Path" stroke="#ED3232" stroke-width="1.638"></path>
                <path d="M537.32859,86.8412315 C539.004208,86.8381309 540.493803,85.7282196 541.039121,84.0764808 L543.028152,78.0134311 C543.41302,76.5535079 543.121881,74.9899708 542.241019,73.7861913 C541.360157,72.5824118 539.990623,71.8764867 538.538293,71.8776234 L522.753998,71.8776234 C519.487047,71.8945263 516.632161,74.1812525 515.774943,77.4677566 L514.425659,81.4087389 C513.993349,82.6624632 514.174417,84.0571744 514.910847,85.1459963 C515.647278,86.2348183 516.846606,86.881041 518.124558,86.8776234 L537.32859,86.8412315 Z" id="Path" fill="#000000"></path>
                <path d="M387.48384,317.993037 C383.561513,319.66634 380.622623,322.972592 379.48384,326.993037" id="Path" stroke="#CB0000" stroke-width="3.276"></path>
                <polygon id="Path" fill="#820303" points="403.564899 257.192275 341.119606 310.918465 334.564899 303.001799 397.665662 248.918465"></polygon>
                <path d="M381.962048,211.400196 L381.962048,211.400196 C385.97613,211.400196 389.230048,214.653991 389.229877,218.668133 L389.226785,291.3273 L381.958647,291.3273 L381.962048,211.400196 Z" id="Path" fill="#820303" transform="translate(385.594262, 251.363748) rotate(49.920000) translate(-385.594262, -251.363748) "></path>
                <path d="M375.377258,204.021861 L375.377258,204.021861 C379.39134,204.021861 382.645258,207.275656 382.645087,211.289798 L382.641996,283.948965 L375.373857,283.948965 L375.377258,204.021861 L375.377258,204.021861 Z" id="Path" fill="#820303" transform="translate(379.009472, 243.985413) rotate(49.920000) translate(-379.009472, -243.985413) "></path>
                <path d="M358.49811,206.076061 L358.49811,206.076061 C360.42574,206.076061 362.274387,206.84166 363.637369,208.204663 C365.000351,209.567665 365.766021,211.416339 365.765939,213.343998 L365.762847,286.003165 L358.494709,286.003165 L358.49811,206.076061 Z" id="Path" fill="#820303" transform="translate(362.130324, 246.039613) rotate(49.920000) translate(-362.130324, -246.039613) "></path>
                <path d="M371.489507,284.750439 C369.634895,286.061566 367.900084,287.5361 366.305625,289.156578 C364.420577,293.290295 363.501616,298.063612 365.763674,302.647418 L394.192554,310.168649 C394.192554,310.168649 399.635631,313.958876 398.504602,317.583281 L274.45666,317.725415 C274.45666,317.725415 252.342691,262.482856 253.721132,263.240901 C254.757908,263.797591 302.720599,276.447473 310.649582,278.508409 C313.392054,279.212432 316.304214,278.585692 318.519658,276.814651 L347.655431,253.563978 C349.530425,252.066057 351.950987,251.441292 354.311838,251.84591 C356.672689,252.250528 358.75063,253.646275 360.026059,255.684136 L372.985764,276.494851 C374.699277,279.218996 374.048625,282.808965 371.489507,284.750439 L371.489507,284.750439 Z" id="Path" fill="#820303"></path>
                <path d="M138.398809,242.697413 C135.088282,237.561475 134.553462,231.112062 136.972725,225.500234 L217.116287,0.521496321 L140.626328,0.651241845 L71.5142919,198.678296 C59.9574483,226.388414 63.1998067,258.069444 80.1297249,282.85955 C96.370582,306.449645 122.287596,320.603702 149.453906,320.521496 L287.677979,320.344211 L287.560121,249.573926 L149.347834,249.750852 C143.808499,249.691876 139.848465,244.796932 138.398809,242.697413 Z" id="Path" fill="#ED3232"></path>
                <path d="M390.117375,216.835994 L353.962393,247.490644 L353.962393,247.490644 L317.250817,276.844649 C315.023922,278.628857 312.096711,279.260257 309.340064,278.551 C301.3701,276.474741 253.15951,263.730807 252.117375,263.169979" id="Path" stroke="#ED3232" stroke-width="1.2285"></path>
                <path d="M407.107531,215.297232 L359.107531,255.297232" id="Path" stroke="#ED3232" stroke-width="1.2285"></path>
                <path d="M414.141334,223.094413 L364.141334,264.094413" id="Path" stroke="#ED3232" stroke-width="1.2285"></path>
                <path d="M396.973774,249.533701 L369.973774,272.533701" id="Path" stroke="#ED3232" stroke-width="1.2285"></path>
                <path d="M420.860103,284.766852 L420.860103,284.766852" id="Path" stroke="#ED3232" stroke-width="1.2285"></path>
                <polygon id="Rectangle" fill="#820303" transform="translate(197.483792, 129.179163) rotate(-0.090000) translate(-197.483792, -129.179163) " points="190.380476 102.013108 204.587101 102.01311 204.587108 156.345218 190.380483 156.345216"></polygon>
                <polygon id="Rectangle" fill="#ED3232" transform="translate(213.713978, 129.153671) rotate(-0.090000) translate(-213.713978, -129.153671) " points="201.519168 101.987615 225.908781 101.987618 225.908788 156.319727 201.519175 156.319724"></polygon>
                <polygon id="Rectangle" fill="#820303" transform="translate(217.826088, 129.147212) rotate(-0.090000) translate(-217.826088, -129.147212) " points="210.722772 101.981157 224.929397 101.981159 224.929404 156.313267 210.722779 156.313265"></polygon>
                <polygon id="Rectangle" fill="#ED3232" transform="translate(234.056274, 129.121720) rotate(-0.090000) translate(-234.056274, -129.121720) " points="221.861464 101.955664 246.251077 101.955668 246.251085 156.287776 221.861471 156.287773"></polygon>
                <polygon id="Rectangle" fill="#820303" transform="translate(238.156603, 129.127078) rotate(-0.090000) translate(-238.156603, -129.127078) " points="231.053287 101.961023 245.259912 101.961025 245.25992 156.293134 231.053294 156.293132"></polygon>
                <polygon id="Rectangle" fill="#ED3232" transform="translate(254.398570, 129.089769) rotate(-0.090000) translate(-254.398570, -129.089769) " points="242.20376 101.923713 266.593373 101.923717 266.593381 156.255825 242.203768 156.255822"></polygon>
                <polygon id="Rectangle" stroke="#AECCCB" stroke-width="1.638" transform="translate(254.685216, 112.512457) rotate(-0.090000) translate(-254.685216, -112.512457) " points="245.587784 108.565856 263.782648 108.565859 263.782649 116.459057 245.587785 116.459055"></polygon>
                <path d="M174.731754,155.867438 L305.731754,155.717438" id="Path" stroke="#8E0000" stroke-width="1.638"></path>
                <polygon id="Rectangle" fill="#820303" transform="translate(236.686777, 128.627950) rotate(-0.090000) translate(-236.686777, -128.627950) " points="233.176415 102.069518 240.197131 102.069519 240.197138 155.186382 233.176422 155.186381"></polygon>
                <path d="M74.7376466,639.085186 C74.728504,626.371615 65.7349319,615.446852 53.2849285,613.025935 C40.834925,610.605019 28.419233,617.366728 23.6693102,629.154895 C18.9193873,640.943062 23.1670212,654.452511 33.8013513,661.379492 C36.6609527,663.251696 38.3932347,666.436917 38.4138903,669.860766 L38.4138903,669.860766 C38.4138875,671.633528 39.1171729,673.333511 40.3687003,674.585937 C41.6202277,675.838362 43.3172344,676.540394 45.0855985,676.537272 L51.5102065,676.537272 C55.1830299,676.52432 58.1572381,673.542719 58.170148,669.860766 L58.170148,669.860766 C58.1413632,666.435317 59.8469445,663.228847 62.7003203,661.344105 C70.215298,656.447993 74.7459724,648.070053 74.7376466,639.085186 L74.7376466,639.085186 Z" id="Path" fill="#AECCCB"></path>
                <path d="M37.5070658,668.706657 L37.5070658,683.038069 C37.4944778,684.808447 38.2036567,686.510118 39.4764095,687.763094 C40.7491622,689.01607 42.4794826,689.715991 44.2809836,689.706657 L50.7809252,689.706657 C52.567964,689.703463 54.2805569,689.002847 55.5419515,687.758843 C56.8033462,686.51484 57.5102153,684.829351 57.5070658,683.073167 L57.5070658,668.730055 L37.5070658,668.706657 Z" id="Path" fill="#820303"></path>
                <path d="M38.2558733,670.837043 L38.2558733,685.184506 C38.262436,688.847557 41.2807948,691.813619 45.0018578,691.813619 L51.5217864,691.813619 C55.2428436,691.807158 58.2558733,688.835851 58.2558733,685.172793 L58.2558733,670.813619 L38.2558733,670.837043 Z" id="Path" fill="#000000"></path>
                <polygon id="Path" fill="#CB0000" points="58.0592048 673.855365 37.0714497 677.679265 37.0592048 675.503164 58.0592048 671.679265"></polygon>
                <polygon id="Path" fill="#CB0000" points="58.5642735 677.955419 37.5642735 681.771319 37.5642735 679.587218 58.5642735 675.771319"></polygon>
                <polygon id="Path" fill="#CB0000" points="58.947473 683.032019 37.947473 686.855919 37.947473 684.679818 58.947473 680.855919"></polygon>
                <path d="M41.9190374,690.670692 L50.9190374,690.670692 L50.9190374,691.198692 C50.9190374,692.56394 49.8003527,693.670692 48.4203851,693.670692 L44.4176897,693.670692 C43.0377221,693.670692 41.9190374,692.56394 41.9190374,691.198692 L41.9190374,690.670692 L41.9190374,690.670692 Z" id="Path" fill="#000000"></path>
                <path d="M55.1399563,621.366692 L42.2985433,658.499248 C52.7040696,661.613986 63.7609905,656.08391 67.2395992,646.025077 C70.7182079,635.966244 65.354169,625.034637 55.1399563,621.366692 L55.1399563,621.366692 Z" id="Path" fill="url(#linearGradient-6)"></path>
                <polygon id="Rectangle" fill="#820303" transform="translate(171.658410, 860.147844) rotate(-0.090000) translate(-171.658410, -860.147844) " points="127.127006 813.136701 216.189802 813.136713 216.189815 907.158987 127.127019 907.158975"></polygon>
                <polygon id="Rectangle" fill="#ED3232" transform="translate(133.622789, 860.195786) rotate(-0.090000) translate(-133.622789, -860.195786) " points="102.182955 813.184645 165.06261 813.184654 165.062623 907.206928 102.182967 907.206919"></polygon>
                <polygon id="Path" fill="#ED3232" points="126.967159 906.848362 78.0377641 906.930589 77.9671589 864.548566 126.896554 860.930589"></polygon>
                <polygon id="Path" fill="#820303" points="156.587795 907.386584 123.646306 907.43342 123.587795 865.188044 156.482476 838.43342"></polygon>
                <path d="M111.045559,837.598678 C109.527233,838.619021 81.6206482,862.825781 78.1720486,864.326975 L78.0896589,864.409072 C78.0896589,864.409072 121.709146,864.72573 123.992519,864.326975 C126.275892,863.92822 155.536024,838.525196 157.089659,837.528309 L111.045559,837.598678 Z" id="Path" fill="#AECCCB"></path>
                <path d="M176.210174,837.492406 L207.644476,837.492406 C208.85322,837.492406 209.8331,838.472286 209.8331,839.68103 C209.8331,840.889775 208.85322,841.869655 207.644476,841.869655 L176.210174,841.869655 C175.00143,841.869655 174.021549,840.889775 174.021549,839.68103 C174.021549,838.472286 175.00143,837.492406 176.210174,837.492406 Z" id="Rectangle" fill="#CB0000" transform="translate(191.927325, 839.681030) rotate(-0.090000) translate(-191.927325, -839.681030) "></path>
                <path d="M179.289764,857.06427 C177.082168,857.057777 175.297211,855.264047 175.301529,853.056441 C175.305862,850.848835 177.097834,849.062114 179.305439,849.06427 C181.513043,849.06643 183.301529,850.856651 183.301529,853.06427 C183.295067,855.270723 181.507986,857.057809 179.301529,857.06427 L179.289764,857.06427 Z" id="Path" fill="#000000"></path>
                <path d="M178.622451,851.14315 C180.392792,851.247063 181.775229,852.713019 181.775229,854.486402 C181.775229,856.259785 180.392792,857.725742 178.622451,857.829654 L178.622451,857.829654 C176.85211,857.725742 175.469673,856.259785 175.469673,854.486402 C175.469673,852.713019 176.85211,851.247063 178.622451,851.14315 L178.622451,851.14315 L178.622451,851.14315 Z M178.622452,849.992289 L178.622452,849.992289 C176.801373,849.992295 175.159829,851.089902 174.464013,852.7728 C173.768197,854.455699 174.155301,856.392072 175.444646,857.678115 C176.73399,858.964158 178.671354,859.346302 180.352471,858.64618 C182.033587,857.946058 183.12699,856.301715 183.122393,854.480648 C183.128524,853.286375 182.656048,852.139391 181.810475,851.295983 C180.964902,850.452575 179.816708,849.983038 178.622452,849.992289 L178.622452,849.992289 Z" id="Shape" fill="#CB0000" fill-rule="nonzero"></path>
                <path d="M191.333952,857.534156 C189.127495,857.527695 187.340413,855.740613 187.333952,853.534156 C187.333952,851.325017 189.124813,849.534156 191.333952,849.534156 C193.543091,849.534156 195.333952,851.325017 195.333952,853.534156 C195.333952,855.743295 193.543091,857.534156 191.333952,857.534156 Z" id="Path" fill="#000000"></path>
                <path d="M191.769305,850.745236 C193.617328,850.745236 195.115447,852.243355 195.115447,854.091379 C195.115447,855.939402 193.617328,857.437521 191.769305,857.437521 L191.769305,857.437521 C189.921282,857.437521 188.423163,855.939402 188.423163,854.091379 C188.423163,852.243355 189.921282,850.745236 191.769305,850.745236 L191.769305,850.745236 L191.769305,850.745236 Z M191.769305,849.591379 L191.769305,849.591379 C190.574895,849.588319 189.428519,850.061436 188.583941,850.906014 C187.739362,851.750592 187.266245,852.896968 187.269305,854.091379 C187.269305,856.576652 189.284032,858.591364 191.769305,858.591364 C194.254578,858.591364 196.26929,856.576652 196.26929,854.091379 C196.26929,851.606105 194.254578,849.591379 191.769305,849.591379 Z" id="Shape" fill="#CB0000" fill-rule="nonzero"></path>
                <path d="M203.364563,858.004042 C201.457212,858.003099 199.815894,856.655501 199.443673,854.78481 C199.071451,852.914119 200.0719,851.040869 201.833611,850.309863 C203.595322,849.578858 205.628087,850.193506 206.689616,851.778175 C207.751145,853.362845 207.546059,855.47659 206.199694,856.827631 C205.448714,857.581219 204.428451,858.004567 203.364563,858.004042 L203.364563,858.004042 Z" id="Path" fill="#000000"></path>
                <path d="M203.91203,850.222652 C205.760053,850.222652 207.258172,851.720757 207.258172,853.568762 C207.258172,855.416768 205.760053,856.914872 203.91203,856.914872 L203.91203,856.914872 C202.064006,856.914872 200.565887,855.416768 200.565887,853.568762 C200.565887,851.720757 202.064006,850.222652 203.91203,850.222652 L203.91203,850.222652 L203.91203,850.222652 Z M203.91203,849.068762 L203.91203,849.068762 C201.426769,849.075202 199.417238,851.095054 199.423598,853.580291 C199.429988,856.065527 201.449855,858.075043 203.935116,858.068689 C206.420377,858.062304 208.429917,856.042461 208.423568,853.557224 C208.423568,852.362816 207.947513,851.217662 207.100769,850.375257 C206.254024,849.532852 205.106433,849.06268 203.91203,849.068762 L203.91203,849.068762 Z" id="Shape" fill="#CB0000" fill-rule="nonzero"></path>
                <path d="M114.388159,843.647288 C113.548286,844.216125 98.0572999,857.67085 96.085932,858.506692 L96.085932,858.506692 C96.085932,858.506692 120.372252,858.692434 121.655391,858.506692 C122.93853,858.320949 139.222729,844.169689 140.085932,843.589244 L114.388159,843.647288 Z" id="Path" fill="#820303"></path>
                <path d="M121.467989,858.693522 C122.756171,858.460059 139.266171,844.277179 140.140717,843.693522 L114.140717,843.693522" id="Path" fill="#000000"></path>
                <path d="M166.124388,743.630639 L166.124388,762.52671 C166.137538,771.966405 158.397313,779.631113 148.831842,779.65054 C144.340317,779.65364 140.034525,781.419819 136.864119,784.559543 C133.693712,787.699267 131.919133,791.954615 131.931769,796.38706 L131.931769,812.278538 L131.444152,812.278538 L131.444152,812.583692 L194.263427,812.489799 L194.263427,796.598321 C194.250794,792.164794 196.024994,787.908241 199.195059,784.766654 C202.365123,781.625067 206.670882,779.856278 211.1635,779.850064 C220.699199,779.830695 228.424525,772.206957 228.444152,762.796654 L228.444152,743.583692 L166.124388,743.630639 Z" id="Path" fill="#AECCCB"></path>
                <path d="M165.795336,743.245321 L165.795336,762.33827 C165.808354,771.876317 158.146249,779.620883 148.677322,779.640513 C147.262293,779.644309 145.85364,779.83164 144.486116,780.197885 L207.672073,780.091154 C208.5706,779.935572 209.479998,779.852296 210.391648,779.842116 C219.826506,779.816027 227.466711,772.11476 227.486116,762.611026 L227.486116,743.197885 L165.795336,743.245321 Z" id="Path" fill="url(#linearGradient-7)"></path>
                <path d="M172.519457,748.799275 L172.519457,764.133482 C172.530644,768.828342 170.222518,773.208161 166.390335,775.763889 L192.651443,775.763889 C196.255022,773.157438 198.396574,768.909804 198.390335,764.381189 L198.390335,748.763889 L172.519457,748.799275 Z" id="Path" fill="#CB0000"></path>
                <polyline id="Path" stroke="#AECCCB" stroke-width="1.638" points="179.726128 761.272679 183.70846 765.273727 193.726128 754.273727"></polyline>
                <polygon id="Rectangle" fill="#CB0000" transform="translate(212.085656, 752.588326) rotate(-0.090000) translate(-212.085656, -752.588326) " points="203.064921 750.730061 221.106391 750.730063 221.106391 754.446592 203.064921 754.44659"></polygon>
                <path d="M201.051817,642.400638 L201.051817,654.147036 L106.051817,654.400638 L106.051817,654.400638 C106.045546,651.285298 107.31217,648.295123 109.573067,646.087921 C111.833965,643.880719 114.903934,642.637294 118.107614,642.631185 L201.051817,642.400638 Z" id="Path" fill="#820303"></path>
                <path d="M149.201163,614.92218 L149.201163,614.92218 C153.899308,614.92218 157.707896,618.731096 157.707896,623.429634 L157.707896,708.539592 L149.201163,708.539592 L149.201163,614.92218 Z" id="Path" fill="#820303" transform="translate(153.454529, 661.730886) rotate(-90.090000) translate(-153.454529, -661.730886) "></path>
                <path d="M149.554597,626.513727 L149.554597,626.513727 C154.252742,626.513727 158.061329,630.322643 158.061329,635.021181 L158.061329,720.131138 L149.554597,720.131138 L149.554597,626.513727 Z" id="Path" fill="#820303" transform="translate(153.807963, 673.322433) rotate(-90.090000) translate(-153.807963, -673.322433) "></path>
                <path d="M166.260043,637.3631 L166.260043,637.3631 C170.958188,637.3631 174.766775,641.172017 174.766775,645.870555 L174.766775,730.980512 L166.260043,730.980512 L166.260043,637.3631 Z" id="Path" fill="#820303" transform="translate(170.513409, 684.171806) rotate(-90.090000) translate(-170.513409, -684.171806) "></path>
                <path d="M197.66485,642.62122 L197.83042,642.62122 C203.672655,640.484227 208.296773,637.898585 209.987946,630.814632 L193.229955,605.300595 C193.229955,605.300595 191.172164,597.803412 194.921128,595.418481 L335.891667,712.10299 C335.891667,712.10299 311.671226,784.123177 310.985295,782.387609 C310.464934,781.100691 258.94919,701.843065 253.308003,694.027104 C251.367641,691.327324 248.273946,689.689143 244.946747,689.599634 L190.545365,688.418975 C187.437537,688.354331 184.505811,686.965703 182.489906,684.603461 C180.474,682.24122 179.566444,679.130972 179.996227,676.057477 L183.544144,653.802059 C184.604873,646.966061 190.755736,642.09578 197.66485,642.62122 L197.66485,642.62122 Z" id="Path" fill="#820303"></path>
                <path d="M336.199394,711.987766 L195.450551,595.987766 C191.707482,598.337133 193.762037,605.819867 193.762037,605.819867 L210.493674,631.169538 C209.18301,636.537842 205.286439,639.991411 200.882134,642.258551" id="Path" stroke="#ED3232" stroke-width="1.638"></path>
                <path d="M201.051817,642.400638 L196.948717,642.400638 L118.088575,642.528051 C114.879566,642.540301 111.80733,643.798796 109.549351,646.026017 C107.291372,648.253238 106.033107,651.266253 106.051817,654.400638" id="Path" stroke="#ED3232" stroke-width="1.638"></path>
                <ellipse id="Oval" fill="#CB0000" transform="translate(153.141008, 518.770940) rotate(-30.960000) translate(-153.141008, -518.770940) " cx="153.141008" cy="518.77094" rx="4.01174597" ry="5.71060621"></ellipse>
                <path d="M104.700403,430.877297 L163.710744,430.877297 C169.256202,430.877297 173.751684,435.372779 173.751684,440.918237 L173.751684,579.29027 C173.751684,584.835728 169.256202,589.33121 163.710744,589.33121 L104.700403,589.33121 C99.1549447,589.33121 94.6594627,584.835728 94.6594627,579.29027 L94.6594627,440.918237 C94.6594627,435.372779 99.1549447,430.877297 104.700403,430.877297 Z" id="Rectangle" fill="#820303" transform="translate(134.205573, 510.104253) rotate(-0.090000) translate(-134.205573, -510.104253) "></path>
                <path d="M110.859727,430.867623 L169.870068,430.867623 C175.415527,430.867623 179.911008,435.363105 179.911008,440.908563 L179.911008,579.280595 C179.911008,584.826053 175.415527,589.321535 169.870068,589.321535 L110.859727,589.321535 C105.314269,589.321535 100.818787,584.826053 100.818787,579.280595 L100.818787,440.908563 C100.818787,435.363105 105.314269,430.867623 110.859727,430.867623 Z" id="Rectangle" fill="#ED3232" transform="translate(140.364898, 510.094579) rotate(-0.090000) translate(-140.364898, -510.094579) "></path>
                <polygon id="Path" fill="#820303" points="175.785001 573.533892 105.984599 573.815489 105.785001 447.108818 175.585404 446.815489"></polygon>
                <polygon id="Path" fill="#CB0000" points="174.923755 572.758954 105.017826 572.946301 104.923755 511.133647 174.829685 510.946301"></polygon>
                <path d="M146.503617,440.186953 L133.513001,440.186953 C133.23732,440.17413 132.976621,440.009697 132.788335,439.72988 C132.600048,439.450063 132.499623,439.077818 132.509181,438.69515 L132.509181,438.69515 C132.48918,437.895337 132.937045,437.22244 133.513001,437.186953 L146.503617,437.186953 C146.780375,437.195376 147.042974,437.358469 147.231936,437.63929 C147.420898,437.92011 147.520231,438.294896 147.507437,438.678756 L147.507437,438.678756 C147.521069,439.475259 147.076693,440.142915 146.503617,440.186953 L146.503617,440.186953 Z" id="Path" fill="#820303"></path>
                <polygon id="Path" fill="#AECCCB" points="143.904265 465.927448 111.915814 466.218418 111.927362 468.927448 143.915814 468.636478"></polygon>
                <polygon id="Path" fill="#AECCCB" points="131.847812 474.190082 110.859986 474.367783 110.87216 477.190082 131.859986 477.012382"></polygon>
                <circle id="Oval" stroke="#AECCCB" stroke-width="1.638" fill="#CB0000" cx="139.99285" cy="516.767039" r="23"></circle>
                <path d="M131.107266,507.432209 L134.01562,510.345685 C137.445002,510.068844 140.823301,511.311003 143.259595,513.744581 C145.69589,516.17816 146.945573,519.558823 146.679078,522.995026 L149.587433,525.896362 C152.507905,522.254517 151.126437,515.602081 146.242825,510.734149 C141.359214,505.866216 134.779063,504.494455 131.107266,507.432209 Z" id="Path" fill="#AECCCB"></path>
                <path d="M136.543686,510.893177 L133.706151,515.05703 C133.447286,515.417592 133.051838,515.662353 132.607522,515.737022 C132.163207,515.811692 131.706757,515.710096 131.339418,515.454771 L128.272845,513.354201 C127.901702,513.103253 127.648568,512.717875 127.569716,512.283736 C127.490863,511.849597 127.592827,511.402678 127.85294,511.04233 L130.016083,507.760965 L136.543686,510.893177 Z" id="Path" fill="#AECCCB"></path>
                <path d="M146.034721,519.449805 L141.856467,522.252501 C141.109726,522.803683 140.932369,523.870315 141.458538,524.64567 L143.572536,527.729915 C144.103504,528.496817 145.136022,528.679631 145.885498,528.139442 L149.155977,525.951035 L146.034721,519.449805 Z" id="Path" fill="#AECCCB"></path>
                <circle id="Oval" fill="#820303" cx="206.177433" cy="408.526099" r="64.5"></circle>
                <path d="M241.961215,449.797 L245.796509,481.53322 L175.608274,481.828496 L174.796509,450.198575 L178.996509,434.478102 C181.678862,423.576527 190.890627,415.958417 201.431803,415.899362 L215.208274,415.828496 C225.796509,415.828496 234.984744,423.304874 237.702391,434.171015 L241.961215,449.797 Z" id="Path" fill="#CB0000"></path>
                <path d="M167.201384,430.158276 L167.201384,430.158276 C163.1113,430.564621 159.389816,427.667091 158.583001,423.448042 L157.709823,415.383885 L172.519833,414.196233 L173.653831,422.224761 C173.89806,424.193439 173.336236,426.178501 172.107089,427.689781 C170.877942,429.201062 169.09604,430.097695 167.201384,430.158276 L167.201384,430.158276 Z" id="Path" fill="#AECCCB"></path>
                <path d="M180.511653,411.509403 C179.136493,411.811304 177.9348,412.657223 177.170069,413.861676 C175.944821,415.87304 174.942346,418.40713 172.17997,417.066221 C173.293831,425.077585 173.449771,426.509403 173.449771,426.509403 C173.449771,426.509403 176.891603,420.827585 178.016603,418.429858 C179.141603,416.03213 181.17997,412.350312 181.17997,412.350312 L180.511653,411.509403 Z" id="Path" fill="#AECCCB"></path>
                <path d="M172.572709,414.73831 L169.572709,414.580354 L169.867255,401.397107 C169.87475,400.929097 170.056296,400.485542 170.368571,400.172283 C170.680846,399.859024 171.095841,399.70416 171.514527,399.744644 L172.299982,399.744644 L172.572709,414.73831 Z" id="Path" fill="#AECCCB"></path>
                <path d="M164.392328,415.578291 L161.248584,415.687513 L160.399544,402.483735 C160.35714,402.02048 160.503014,401.560012 160.800744,401.21731 C161.098473,400.874608 161.519954,400.682019 161.959942,400.687513 L162.786036,400.687513 L164.392328,415.578291 Z" id="Path" fill="#AECCCB"></path>
                <path d="M161.801616,419.867483 L158.747534,420.34557 L156.930979,407.640391 C156.715263,406.720072 156.669849,405.644375 157.600833,405.477045 L158.40693,405.34557 L161.801616,419.867483 Z" id="Path" fill="#AECCCB"></path>
                <path d="M168.602525,415.250833 L166.026315,415.250833 L165.604753,399.988678 C165.583535,399.528592 165.714572,399.0783 165.96583,398.747879 C166.217088,398.417459 166.565411,398.237363 166.925646,398.251619 L167.600145,398.251619 L168.602525,415.250833 Z" id="Path" fill="#AECCCB"></path>
                <polygon id="Path" fill="#AECCCB" points="162.543567 449.463553 173.543567 451.614202 170.418016 429.116021 162.688942 428.614202"></polygon>
                <path d="M171.744669,418.626502 C169.071284,420.123401 167.236608,422.691947 166.744669,425.626502" id="Path" stroke="#000000" stroke-width="1.2285"></path>
                <path d="M176.15778,460.190113 C175.116765,456.194711 173.639975,452.861197 173.058943,448.805623 C168.628576,450.478397 163.520338,450.538569 161.256734,446.795887 C160.1277,448.678893 160.028982,451.440784 159.515572,454.273212 C159.442558,454.676024 162.07782,456.645767 164.496589,458.32479 C166.501984,459.716863 170.841151,462.540562 177.514088,466.795887 C176.727274,465.387869 176.50882,461.574063 176.15778,460.190113 Z" id="Path" fill="#CB0000"></path>
                <path d="M172.408431,449.523376 C174.187347,455.058529 175.525476,460.745577 176.408431,466.523376" id="Path" stroke="#000000" stroke-width="1.2285"></path>
                <path d="M219.12425,416.937042 C217.627707,416.584835 216.08944,416.411361 214.546226,416.420766 L202.702275,416.420766 C201.156987,416.426599 199.61872,416.615493 198.12425,416.982933 C198.345294,422.273647 203.013438,426.448115 208.677647,426.420264 C214.341856,426.392414 218.962761,422.172272 219.12425,416.879678 L219.12425,416.937042 Z" id="Path" fill="#AECCCB"></path>
                <circle id="Oval" stroke="#ED3232" stroke-width="1.638" cx="206.177433" cy="408.526099" r="64.5"></circle>
                <polygon id="Path" fill="#000000" points="233.139865 410.848531 231.532919 400.226033 219.779929 382.115545 205.387795 387.653175 205.387795 387.351334 193.892855 382.243247 184.872845 391.878956 182.139865 411.115545 205.422983 410.987843 205.422983 410.953015"></polygon>
                <polygon id="Path" fill="url(#linearGradient-8)" points="212.634592 400.330772 204.658798 400.365896 204.695107 417.330772 212.658798 417.295648"></polygon>
                <path d="M224.545089,381.912691 C224.545089,391.210805 217.367522,405.092829 208.586966,405.140329 C199.806409,405.187587 192.557067,391.376631 192.545089,382.066673 C192.533141,372.756714 199.722671,365.187931 208.51519,365.140329 C217.307709,365.093174 224.521164,372.602733 224.545089,381.912691 Z" id="Path" fill="#C0C7C9"></path>
                <path d="M190.123259,383.933628 L229.327281,383.722196 C230.057692,381.039573 230.454852,378.278256 230.509906,375.499806 C230.509906,364.282118 224.040947,355.813057 213.894024,354.074609 C212.14678,354.194777 210.430068,354.591312 208.808736,355.249236 C209.151697,355.249236 204.657722,353.698729 203.167614,354.074609 C196.268887,355.694519 190.782876,360.878613 188.810546,367.641552 C188.006361,370.131761 188.952461,373.068328 186.977477,375.793463 C185.475543,377.884299 188.006361,381.149762 188.763241,384.015852 C189.214854,383.965225 189.668798,383.937781 190.123259,383.933628 L190.123259,383.933628 Z" id="Path" fill="#000000"></path>
                <path d="M230.079109,372.705736 C230.169109,373.365049 230.459109,382.230464 231.489109,384.644023 C229.999109,385.515259 228.489109,376.87354 228.489109,376.87354" id="Path" fill="#000000"></path>
                <path d="M232.99703,408.477165 L218.479487,408.477165 C218.334846,404.207799 218.466972,399.933326 218.874997,395.681811 C219.200712,393.553216 219.317038,392.839721 218.572549,391.020307 C218.033048,389.559013 216.967757,388.363661 215.594591,387.678769 C211.781116,385.334569 208.82626,381.774985 207.184188,377.547132 C205.579828,373.778719 205.043734,369.625245 205.637046,365.560406 L220.096425,365.477165 C220.038262,365.857696 219.980099,366.214444 219.921936,366.5593 C219.584589,368.676004 219.479895,369.389499 220.224384,371.197022 C220.968874,373.004544 221.527241,373.396966 223.202342,374.538559 C227.014554,376.886436 229.965723,380.45068 231.601112,384.682088 C233.404378,388.964404 233.867593,393.712129 232.927234,398.274179 C232.554413,401.665959 232.577843,405.091047 232.99703,408.477165 L232.99703,408.477165 Z" id="Path" fill="#000000"></path>
                <ellipse id="Oval" fill="#C0C7C9" cx="224.730501" cy="384.608874" rx="3" ry="6.5"></ellipse>
                <path d="M224.545089,381.912691 C224.545089,391.210805 217.424674,405.092829 208.580998,405.140329 C199.737322,405.187587 192.557071,391.376631 192.545089,382.066673 C192.533137,372.756714 199.725355,365.187931 208.521162,365.140329 C217.31697,365.093174 224.533122,372.602733 224.545089,381.912691 Z" id="Path" fill="#AECCCB"></path>
                <ellipse id="Oval" stroke="#000000" stroke-width="1.2285" transform="translate(217.000547, 384.385574) rotate(-88.560000) translate(-217.000547, -384.385574) " cx="217.000547" cy="384.385574" rx="6.58356529" ry="6.194749"></ellipse>
                <ellipse id="Oval" stroke="#000000" stroke-width="1.2285" transform="translate(200.006698, 384.465166) rotate(-88.560000) translate(-200.006698, -384.465166) " cx="200.006698" cy="384.465166" rx="6.58356529" ry="6.194749"></ellipse>
                <path d="M220.707879,377.128888 C218.772565,374.462221 215.643192,374.462221 213.707879,377.128888" id="Path" stroke="#000000" stroke-width="1.2285"></path>
                <path d="M197.971271,384.452571 C196.495889,385.623054 195.400878,386.067838 194.755399,387.858678 C193.931019,390.063541 193.585031,392.423127 193.741073,394.776235 C193.983128,396.391502 195.65446,404.631706 195.504616,408.54112 L182.825549,408.54112 C183.128092,405.353085 183.128092,402.142896 182.825549,398.954861 C182.399071,396.028652 181.753591,388.42051 183.978191,382.380815 C185.313143,378.316693 187.894229,374.793265 191.343577,372.326362 C192.595617,371.590974 193.529584,370.404401 193.960075,369.002189 C194.605555,367.211349 194.513344,369.692774 194.213657,367.609314 C194.213657,367.281578 194.109919,366.930433 194.063813,366.555879 L208.183684,362.54112 C208.529476,365.3971 208.67932,367.223054 206.846618,372.256133 C204.96834,377.02794 201.91177,381.228257 197.971271,384.452571 L197.971271,384.452571 Z" id="Path" fill="#000000"></path>
                <path d="M208.245979,393.057033 L205.183208,393.057033 C205.183208,393.057033 206.395329,383.259414 206.395329,383.057033 L210.183208,383.057033" id="Path" stroke="#000000" stroke-width="1.2285"></path>
                <path d="M216.354793,382.076711 L216.354793,384.076711" id="Path" stroke="#000000" stroke-width="1.2285" stroke-linecap="round"></path>
                <path d="M200.230316,382.111894 L200.230316,384.111894" id="Path" stroke="#000000" stroke-width="1.2285" stroke-linecap="round"></path>
                <path d="M205.132411,396.237414 C206.082757,396.965572 207.353514,397.322407 208.632411,397.220234 C209.909801,397.311519 211.175515,396.956099 212.132411,396.237414" id="Path" stroke="#000000" stroke-width="1.2285"></path>
                <circle id="Oval" fill="#000000" cx="101.976408" cy="346.36384" r="12.5"></circle>
                <text id="7" fill="#AECCCB" transform="translate(103.056459, 350.474484) rotate(-0.090000) translate(-103.056459, -350.474484) " font-family="Helvetica" font-size="19.656" font-weight="normal">
                    <tspan x="98.9266259" y="357.474484">7</tspan>
                </text>
                <circle id="Oval" fill="#820303" cx="458.664814" cy="329.70908" r="6.5"></circle>
                <polygon id="Rectangle" fill="#ED3232" transform="translate(434.666493, 291.189225) rotate(-0.090000) translate(-434.666493, -291.189225) " points="431.427524 290.192251 437.905462 290.192251 437.905462 292.186198 431.427524 292.186198"></polygon>
                <polygon id="Rectangle" fill="#ED3232" transform="translate(431.739113, 284.513773) rotate(-47.920000) translate(-431.739113, -284.513773) " points="428.500255 283.516613 434.977885 283.516891 434.977971 285.510933 428.500341 285.510655"></polygon>
                <polygon id="Rectangle" fill="#ED3232" transform="translate(425.656452, 282.164489) rotate(-95.750000) translate(-425.656452, -282.164489) " points="422.417769 281.167458 428.895153 281.167402 428.895135 283.16152 422.417751 283.161576"></polygon>
                <circle id="Oval" fill="#CB0000" cx="338.189882" cy="597.01937" r="5.5"></circle>
                <circle id="Oval" fill="#CB0000" cx="356.421321" cy="596.235379" r="5.5"></circle>
                <circle id="Oval" fill="#CB0000" cx="375.401567" cy="597.558351" r="5.5"></circle>
                <path d="M366.119607,137.201907 C366.305194,137.144081 366.497849,137.111996 366.692172,137.106552 L406.19913,137.106552 L397.002311,72.4201368 C395.81827,71.7505129 395.028326,70.5531924 394.879051,69.2019072 L358.19913,74.8516881 L367.813444,125.06799 L366.119607,137.201907 Z" id="Path" fill="#000000"></path>
                <path d="M397.000752,38.38182 C396.427654,37.9723351 395.950201,37.4435912 395.601279,36.8320082 C395.360267,36.4065234 395.243122,35.9221811 395.263074,35.4336818 C390.143338,34.6646023 380.580278,34.1518826 380.906821,33.4993302 C386.283127,26.5076981 398.458535,37.7525731 397.793786,27.8011501 C396.545923,19.6442459 386.131517,17.47684 381.175053,18.560543 C380.113787,18.8868191 380.918483,20.098702 379.938853,20.4482836 C378.959222,20.7978652 378.037903,21.1474468 377.209882,21.4620703 C376.413312,21.9501435 375.653266,22.4953709 374.93574,23.0934511 C374.219862,23.6961018 373.553016,24.3546086 372.941492,25.0627608 C369.197904,29.4092255 367.763445,35.258891 366.982073,40.9337657 C366.360619,45.272125 363.104821,48.7669188 358.818485,49.6966113 L355.471414,50.4074273 C355.844607,50.8851888 356.404395,60.9997499 356.451044,61.7222186 C356.721741,64.0276455 357.585603,66.2236712 358.958432,68.0962565 C361.127614,69.1683068 379.530674,65.7657125 392.079274,64.076068 C395.033419,63.6627457 397.689128,62.0582299 399.427732,59.6363038 C401.166337,57.2143778 401.836031,54.1865144 401.280804,51.2580758 C397.887084,46.1891425 395.741227,41.6329289 397.000752,38.38182 Z" id="Path" fill="#CB0000"></path>
                <polygon id="Path" fill="#AECCCB" points="380.253135 41.7861758 387.401982 43.8931603 385.464875 62.7861758 376.401982 61.6803"></polygon>
                <path d="M396.623914,43.5741697 C398.329321,30.1840313 396.812096,29.9753538 395.600669,27.9001722 C393.848217,24.3062823 391.507692,21.9296776 386.908974,22.3934053 C380.757747,23.031031 376.641248,25.6626859 377.499832,33.7547349 C378.181995,39.632484 379.228762,45.4290807 383.627536,48.6635816 C384.968339,49.6605963 390.24922,50.2286628 392.907302,50.3330015 C394.112363,50.3840063 395.228584,49.7101002 395.730045,48.6288021 C396.290287,47.1402586 396.619393,45.576892 396.706244,43.9915247 C396.657965,43.8571978 396.630218,43.7165414 396.623914,43.5741697 L396.623914,43.5741697 Z" id="Path" fill="#AECCCB"></path>
                <path d="M394.285144,51.2071723 C393.9128,51.0970806 387.57133,47.696469 387.57133,47.696469 C387.57133,47.696469 383.580277,56.344787 384.394777,56.9197106 C385.209278,57.4946341 387.932038,59.696469 387.932038,59.696469 L388.246202,51.6230745 L394.285144,51.2071723 Z" id="Path" fill="url(#linearGradient-9)"></path>
                <circle id="Oval" fill="#CB0000" cx="357.419389" cy="58.8514347" r="9"></circle>
                <ellipse id="Oval" fill="#AECCCB" transform="translate(378.946315, 38.908648) rotate(-7.430000) translate(-378.946315, -38.908648) " cx="378.946315" cy="38.9086483" rx="2.63128973" ry="4.22387034"></ellipse>
                <path d="M393.292375,20.5174056 C391.815665,20.4468117 390.347176,20.2581805 388.90132,19.9533633 C388.305146,19.8761978 387.860931,19.3719994 387.866031,18.7782752 C384.855362,18.30824 382.011292,17.6031871 381.523397,17.6031871 C371.753598,19.6360895 367.410143,28.4257488 367.410143,37.2624115 C370.980106,35.4762776 376.32315,37.1919062 378.607927,37.2036571 L379.976413,37.6031871 C381.552605,34.3654812 383.976576,31.6026752 386.99734,29.6008369 C388.897563,28.3407718 391.069377,27.5360361 393.339974,27.2506606 C394.354418,27.0825178 395.381516,26.9999635 396.410143,27.0038921 C395.755039,24.6812595 394.700422,22.4871377 393.292375,20.5174056 L393.292375,20.5174056 Z" id="Path" fill="#CB0000"></path>
                <path d="M394.972419,27.5880664 C393.684149,28.1990763 393.397867,29.5832006 392.76566,31.0047338 C392.171464,32.4487216 391.401703,33.8066245 390.475401,35.0448806 C389.560505,35.9799111 388.478238,36.7172063 387.290511,37.214589 C385.73405,37.9885485 384.065049,38.4858357 382.352141,38.6860005 C381.55279,38.8329764 380.730608,38.7599026 379.966455,38.4740175 C378.891614,37.8638562 378.049521,36.8867271 377.580769,35.7057688 C377.338937,35.043055 376.992146,34.4276082 376.554924,33.8852088 C376.13531,33.4702945 375.608683,33.192868 375.040014,33.0871551 C373.655522,32.7313097 372.192525,32.9645273 370.972419,33.7355737 L387.994288,23.7599026" id="Path" fill="#CB0000"></path>
                <path d="M396.308473,41.6148758 L398.770724,41.6148758 C398.951627,41.6220688 399.12348,41.5443717 399.223269,41.4102747 C399.323057,41.2761778 399.336098,41.1054112 399.25761,40.9605924 C398.242633,38.6054135 397.623914,36.1304578 397.421355,33.6153351" id="Path" fill="#AECCCB"></path>
                <polygon id="Path" fill="url(#linearGradient-10)" points="407.222426 157.499036 406.197869 136.070088 385.65909 130.570308 367.872316 131.924465 358.222426 157.570308"></polygon>
                <path d="M397.177215,70.7188451 C393.111423,63.6631332 389.595708,55.1257218 380.316136,55.1608023 C375.141735,55.1362865 370.236225,57.4249839 366.98273,61.3817864 L366.91098,61.3817864 C364.575747,63.8779168 361.183323,65.1496254 357.75099,64.8155662 C353.519441,68.9486391 352.980888,75.4972268 356.482058,80.2452774 C359.983229,84.9933279 366.480106,86.525018 371.789931,83.8542288 C376.776505,81.3612106 379.981306,79.7736754 378.869192,74.6347652 L397.177215,70.7188451 Z" id="Path" fill="#000000"></path>
                <path d="M411.576788,113.588307 L411.576788,113.588307 C408.602784,115.349065 391.685877,115.254528 389.61491,112.524762 L376.815855,77.6995723 L394.972934,66.7686932 L414.141415,105.079947 C415.655376,108.14037 414.543577,111.828852 411.576788,113.588307 Z" id="Path" fill="#000000"></path>
                <path d="M382.421811,88.5611046 C383.394443,89.5854949 395.992338,112.170861 404.421811,115.561105" id="Path" stroke="#8E0000" stroke-width="1.2285"></path>
                <polygon id="Path" fill="#000000" points="413.844551 108.287761 402.844551 108.299514 408.66739 74.6873465 413.785853 74.2995138"></polygon>
                <path d="M412.474903,72.0533323 C410.557121,72.2352891 406.709022,74.2732051 409.792515,69.6272418 L415.646138,64.6537564 L416.636365,65.2845399 L412.474903,72.0533323 Z" id="Path" fill="url(#linearGradient-11)"></path>
                <path d="M425.428011,65.3203108 C421.167104,67.3339079 417.188688,68.8135123 413.857647,68.6577645 C408.890512,70.1707435 409.149462,71.8505951 410.055788,74.3203108 C418.01262,73.4525729 424.615849,71.4056013 426.534435,65.7319301 C426.134239,65.6318065 425.792895,65.4760587 425.428011,65.3203108 Z" id="Path" fill="#AECCCB"></path>
                <path d="M395.97338,36.3715964 L395.67338,38.3715964" id="Path" stroke="#000000" stroke-width="1.2285" stroke-linecap="round"></path>
                <path d="M400.697407,118.074776 C390.920434,116.446901 378.926246,125.320656 369.184654,126.569102 C368.264746,126.691498 368.276539,120.179998 368.50062,120.865419 C367.922728,123.313352 366.071118,128.551927 365.493227,130.008447 C365.163004,130.865223 364.986098,132.370702 365.858832,132.627735 C369.184654,133.643627 375.36455,130.963141 381.792114,131.403768 C398.574542,132.627735 406.440937,140.718151 407.136765,136.825939 C407.525957,134.745196 406.476318,131.734239 406.146094,128.79672 C405.544616,123.692781 403.38637,118.527644 400.697407,118.074776 Z" id="Path" fill="#000000"></path>
                <path d="M465.905485,130.246719 L463.204802,154.052527 C452.224392,147.458153 441.883617,131.910059 439.905485,117.116955 L443.613002,115.052527 L465.905485,130.246719 Z" id="Path" fill="#CB0000"></path>
                <polygon id="Path" fill="url(#linearGradient-12)" points="433.898553 111.17399 429.523553 112.116297 426.898553 105.116297 430.118553 106.511402"></polygon>
                <path d="M441.381261,117.399098 C438.310114,118.122649 434.50379,116.423399 432.215253,115.535404 C429.476122,114.439113 427.341735,113.25512 426.381261,108.573959 L433.412881,111.424315 L441.061103,110.08684 L441.381261,117.399098 Z" id="Path" fill="#AECCCB"></path>
                <path d="M440.846376,111.243242 L438.006738,113.969383 L434.224481,108.293034 C433.675537,107.472454 433.729082,106.361657 434.354091,105.604237 L434.872531,104.969383 L440.846376,111.243242 Z" id="Path" fill="#AECCCB"></path>
                <polyline id="Path" fill="#AECCCB" points="439.548462 108.670783 447.314176 116.604623 439.947033 119.670783 438.314176 113.765143"></polyline>
                <path d="M429.985577,110.458914 L426.991494,111.693482 L423.985577,103.693482 L425.169008,103.804593 C425.794261,103.858702 426.357131,104.221109 426.683801,104.779901 L429.985577,110.458914 Z" id="Path" fill="#AECCCB"></path>
                <path d="M452.970568,318.03511 C449.234529,319.733491 446.613373,323.103549 445.970568,327.03511" id="Path" stroke="#CB0000" stroke-width="1.638"></path>
                <path d="M421.006458,284.84672 C419.779743,286.048978 418.021284,286.577627 416.314279,286.257339 C414.607275,285.937051 413.174852,284.809691 412.492079,283.249152 L393.518531,266.034786 L393.518531,266.034786 C391.021684,263.190742 390.324925,259.238489 391.704185,255.743212 C392.308967,254.191951 399.922103,254.354023 399.922103,254.354023 L421.006458,284.84672 L421.006458,284.84672" id="Path" fill="#820303"></path>
                <path d="M421.349705,285.737151 L397.349705,249.737151" id="Path" stroke="#ED3232" stroke-width="1.2285"></path>
                <text id="18" font-family="Graphik-Medium, Graphik" font-size="29.484" font-weight="400" line-spacing="42.588" fill="#FFFFFF">
                    <tspan x="48.6757328" y="760.74782">18</tspan>
                </text>
                <path d="M48.135416,720.682499 L228.953598,720.682499" id="Line-Copy-2" stroke="#FFFFFF" stroke-width="1.638" stroke-linecap="square"></path>
            </g>
        </g>
    </g>
</svg>